<?xml version="1.0" encoding="utf-8"?>
<!-- Generator: Adobe Illustrator 19.0.0, SVG Export Plug-In . SVG Version: 6.00 Build 0)  -->
<svg version="1.1" id="Camada_1" xmlns="http://www.w3.org/2000/svg" xmlns:xlink="http://www.w3.org/1999/xlink" x="0px" y="0px"
	 viewBox="-342 260.3 157 75" style="enable-background:new -342 260.3 157 75;" xml:space="preserve">
<style type="text/css">
	.st0{fill:#565BFE;}
	.st1{fill:url(#SVGID_1_);}
	.st2{fill:url(#SVGID_2_);}
	.st3{fill:url(#SVGID_3_);}
	.st4{fill:none;stroke:url(#SVGID_4_);stroke-width:4.3008;}
</style>
<path class="st0" d="M-342,279.3h4.5v21.3h-4.5V279.3z"/>
<path class="st0" d="M-319.4,292.9c0,0.1,0,0.5-0.1,1.2h-11.7c0.2,1,0.7,1.7,1.5,2.3s1.8,0.8,2.9,0.8c0.8,0,1.5-0.1,2.1-0.3
	c0.6-0.2,1.2-0.6,1.7-1.1l2.4,2.6c-1.5,1.7-3.6,2.5-6.4,2.5c-1.7,0-3.3-0.3-4.6-1c-1.3-0.7-2.4-1.6-3.1-2.8
	c-0.7-1.2-1.1-2.6-1.1-4.1c0-1.5,0.4-2.9,1.1-4.1c0.7-1.2,1.7-2.2,3-2.8c1.3-0.7,2.7-1,4.2-1c1.5,0,2.9,0.3,4.1,1
	c1.2,0.6,2.2,1.6,2.9,2.8C-319.8,289.9-319.4,291.3-319.4,292.9z M-327.4,288.3c-1,0-1.9,0.3-2.6,0.9c-0.7,0.6-1.1,1.4-1.3,2.4h7.6
	c-0.2-1-0.6-1.7-1.3-2.3C-325.6,288.6-326.4,288.3-327.4,288.3z"/>
<path class="st0" d="M-307.6,299.8c-0.4,0.3-1,0.6-1.6,0.7c-0.6,0.2-1.3,0.2-2,0.2c-1.8,0-3.3-0.5-4.3-1.4c-1-0.9-1.5-2.3-1.5-4.1
	v-6.3h-2.4v-3.4h2.4v-3.8h4.5v3.8h3.8v3.4h-3.8v6.3c0,0.6,0.2,1.2,0.5,1.5c0.3,0.3,0.8,0.5,1.4,0.5c0.7,0,1.3-0.2,1.8-0.6
	L-307.6,299.8z"/>
<path class="st0" d="M-286.5,284.9c1.9,0,3.5,0.6,4.6,1.7c1.1,1.1,1.7,2.8,1.7,5.1v8.8h-4.5v-8.1c0-1.2-0.3-2.1-0.8-2.7
	c-0.5-0.6-1.2-0.9-2.2-0.9c-1.1,0-1.9,0.3-2.5,1c-0.6,0.7-0.9,1.7-0.9,3v7.7h-4.5v-8.1c0-2.4-1-3.6-2.9-3.6c-1,0-1.9,0.3-2.5,1
	c-0.6,0.7-0.9,1.7-0.9,3v7.7h-4.5v-15.4h4.3v1.8c0.6-0.6,1.3-1.1,2.1-1.5c0.8-0.3,1.8-0.5,2.8-0.5c1.1,0,2.1,0.2,3,0.7
	c0.9,0.4,1.6,1,2.1,1.9c0.6-0.8,1.4-1.4,2.4-1.9C-288.7,285.1-287.7,284.9-286.5,284.9z"/>
<path class="st0" d="M-262.1,292.9c0,0.1,0,0.5-0.1,1.2h-11.7c0.2,1,0.7,1.7,1.5,2.3s1.8,0.8,2.9,0.8c0.8,0,1.5-0.1,2.1-0.3
	c0.6-0.2,1.2-0.6,1.7-1.1l2.4,2.6c-1.5,1.7-3.6,2.5-6.4,2.5c-1.7,0-3.3-0.3-4.6-1c-1.3-0.7-2.4-1.6-3.1-2.8
	c-0.7-1.2-1.1-2.6-1.1-4.1c0-1.5,0.4-2.9,1.1-4.1c0.7-1.2,1.7-2.2,3-2.8c1.3-0.7,2.7-1,4.2-1c1.5,0,2.9,0.3,4.1,1
	c1.2,0.6,2.2,1.6,2.9,2.8C-262.4,289.9-262.1,291.3-262.1,292.9z M-270.1,288.3c-1,0-1.9,0.3-2.6,0.9c-0.7,0.6-1.1,1.4-1.3,2.4h7.6
	c-0.2-1-0.6-1.7-1.3-2.3C-268.2,288.6-269.1,288.3-270.1,288.3z"/>
<linearGradient id="SVGID_1_" gradientUnits="userSpaceOnUse" x1="-249.5912" y1="318.236" x2="-237.5121" y2="284.1245" gradientTransform="matrix(1 0 0 -1 0 595.84)">
	<stop  offset="0" style="stop-color:#485BFF"/>
	<stop  offset="1" style="stop-color:#FF59F8"/>
</linearGradient>
<path class="st1" d="M-235.9,285.1l-3.1,15.4h-4.2l0.3-1.5c-1.3,1.2-2.9,1.7-4.7,1.7c-1.2,0-2.3-0.3-3.3-0.8c-1-0.6-1.8-1.3-2.4-2.4
	c-0.6-1.1-0.9-2.3-0.9-3.7c0-1.7,0.4-3.2,1.1-4.6c0.8-1.4,1.8-2.4,3.1-3.2c1.3-0.8,2.7-1.2,4.3-1.2c2.4,0,4,0.8,5,2.3l0.4-2.1
	H-235.9z M-246.3,297.1c0.9,0,1.7-0.2,2.4-0.6c0.7-0.4,1.2-1,1.6-1.8c0.4-0.8,0.6-1.6,0.6-2.6c0-1.1-0.3-1.9-0.9-2.5
	c-0.6-0.6-1.5-0.9-2.6-0.9c-0.9,0-1.7,0.2-2.4,0.7c-0.7,0.4-1.2,1-1.6,1.8c-0.4,0.8-0.6,1.6-0.6,2.6c0,1.1,0.3,1.9,0.9,2.5
	C-248.3,296.8-247.4,297.1-246.3,297.1z"/>
<linearGradient id="SVGID_2_" gradientUnits="userSpaceOnUse" x1="-236.2859" y1="322.9474" x2="-224.2068" y2="288.8359" gradientTransform="matrix(1 0 0 -1 0 595.84)">
	<stop  offset="0" style="stop-color:#485BFF"/>
	<stop  offset="1" style="stop-color:#FF59F8"/>
</linearGradient>
<path class="st2" d="M-230.4,300.8c-1.3,0-2.6-0.1-3.8-0.4c-1.2-0.3-2.1-0.7-2.8-1.2l1.7-3.2c0.7,0.4,1.5,0.8,2.4,1.1
	c1,0.3,1.9,0.4,2.9,0.4c1,0,1.8-0.1,2.3-0.4c0.5-0.3,0.7-0.6,0.7-1.1c0-0.4-0.2-0.7-0.7-0.8c-0.4-0.2-1.1-0.4-2.1-0.5
	c-1.1-0.2-2-0.4-2.8-0.7c-0.7-0.2-1.3-0.6-1.9-1.2c-0.5-0.6-0.8-1.3-0.8-2.3c0-1.7,0.7-3,2.1-4c1.4-1,3.3-1.4,5.6-1.4
	c1.1,0,2.1,0.1,3.1,0.3s1.9,0.5,2.6,0.9l-1.6,3.3c-1.3-0.8-2.8-1.2-4.6-1.2c-1,0-1.7,0.1-2.2,0.4c-0.5,0.3-0.7,0.6-0.7,1.1
	c0,0.4,0.2,0.7,0.7,0.9c0.4,0.2,1.2,0.4,2.2,0.6c1.1,0.2,2,0.4,2.7,0.7c0.7,0.2,1.3,0.6,1.8,1.2c0.5,0.6,0.8,1.3,0.8,2.3
	c0,1.7-0.7,3-2.2,4C-226.2,300.3-228.1,300.8-230.4,300.8z"/>
<linearGradient id="SVGID_3_" gradientUnits="userSpaceOnUse" x1="-221.0942" y1="328.3269" x2="-209.0151" y2="294.2154" gradientTransform="matrix(1 0 0 -1 0 595.84)">
	<stop  offset="0" style="stop-color:#485BFF"/>
	<stop  offset="1" style="stop-color:#FF59F8"/>
</linearGradient>
<path class="st3" d="M-210.4,291.8l5.3,8.7h-5.2l-3.7-6l-2.7,2.3l-0.7,3.7h-4.5l4.2-21.3h4.5l-2.4,11.9l7.4-6h5.8L-210.4,291.8z"/>
<linearGradient id="SVGID_4_" gradientUnits="userSpaceOnUse" x1="-252.1062" y1="339.6754" x2="-191.8954" y2="265.1284" gradientTransform="matrix(1 0 0 -1 0 595.84)">
	<stop  offset="0" style="stop-color:#485BFF"/>
	<stop  offset="1" style="stop-color:#FF59F8"/>
</linearGradient>
<path class="st4" d="M-260.9,276.2V269c0-3.2,2.6-5.7,5.7-5.7h61.6c3.2,0,5.7,2.6,5.7,5.7v40.1c0,3.2-2.6,5.7-5.7,5.7h-10l3.4,15.7
	c0.3,1.4-1.3,2.3-2.4,1.4l-15.3-14.1h-37.3c-3.2,0-5.7-2.6-5.7-5.7v-2.9"/>
</svg>
